<svg width="285" height="254" viewBox="0 0 285 254" fill="none" xmlns="http://www.w3.org/2000/svg">
<path d="M1 252C61.2518 185.707 83.4655 163.587 97.0529 158L136.031 179.788L149.256 168.583L159 188.503C136.66 197.079 133.146 207.723 153.432 243.907L97.0529 188.503" stroke="#C4C4C4"/>
<path d="M26 246C54.2759 227.88 88.1255 222.992 108 199" stroke="#C4C4C4"/>
<path d="M54 253C90.5412 241.311 108.78 234.053 125 216" stroke="#C4C4C4"/>
<path d="M217 61C230.333 77.5093 238.061 80.5052 252 82" stroke="#C4C4C4"/>
<path d="M161.632 1.00329C148.185 6.3808 135 19.7605 135 34.0441C135 42.7718 146.045 45.1607 152.754 48.1514C158.218 50.5866 155.805 42.4317 158.081 38.6846C160.38 34.8983 166.958 44.6643 166.958 46.9448C166.958 52.2351 166.958 57.5253 166.958 62.8156C166.958 66.6954 165.381 75.203 172.284 72.4679C174.476 71.5994 179.167 72.0517 180.767 70.7973C183.883 68.3537 186.453 64.4862 190.926 64.4862C196.527 64.4862 201.349 61.145 206.905 61.145C212.824 61.145 218.742 61.145 224.66 61.145C231.405 61.145 230.244 53.0465 229.197 48.6154C227.656 42.0881 220.505 39.2517 214.895 36.4572C202.991 30.5272 200.278 20.4338 191.617 11.1197C181.764 0.524626 168.07 1.00329 154.53 1.00329" stroke="#C4C4C4" stroke-linecap="round" stroke-linejoin="round"/>
<path d="M134.627 40C132.914 48.1621 131.37 57.168 136.534 64.3726C138.781 67.5067 143.124 68.3538 145.47 71.5629C147.925 74.9211 146.059 77.8858 147.679 81.2746C155.521 97.6859 173.721 79.8955 178 71.9365" stroke="#DAD8D8" stroke-linecap="round" stroke-linejoin="round"/>
<path d="M149 133C149 139.036 149 145.668 149 165" stroke="#C4C4C4"/>
<path d="M101 144C116.527 156.813 128.525 160.521 151 166" stroke="#C4C4C4"/>
<path d="M101 145C119.355 137.807 129.645 138.881 148 145" stroke="#C4C4C4"/>
<path d="M58 139.48L83.5126 127L116.756 146.413C128.716 163.857 136.22 165.938 150 165.827L137.63 179L58 139.48Z" fill="#C4C4C4" stroke="#C4C4C4"/>
<path d="M99 130L130 105" stroke="#C4C4C4" stroke-width="4"/>
<path d="M114 123C108.35 124.127 102.926 124.707 100.142 129.769C98.2832 133.149 98.5741 133.92 101.9 133.248C106.275 132.364 108.591 141.935 110.277 145" stroke="#C4C4C4" stroke-linecap="round" stroke-linejoin="round"/>
<path d="M91 129.818C96.8223 124.074 100.542 111.623 110.516 115.864C115.496 117.981 117.76 120.315 121.556 124.349C127.605 130.778 135.869 140 146 140" stroke="#DCDCDC" stroke-linecap="round" stroke-linejoin="round"/>
<path d="M91 133C98.2394 137.633 102.467 145.522 110 140.251" stroke="#E0DCDC" stroke-linecap="round" stroke-linejoin="round"/>
<path d="M155.005 186C155.005 186 176.392 186 179.447 200.58C182.502 215.16 210 244.982 210 244.982C188.523 247.657 176.482 247.689 155.005 244.982C120.971 207.339 122.367 195.024 155.005 186Z" fill="#51F0D3" stroke="#51F0D3"/>
<path d="M163.842 87.2528C146.285 97.0544 144.913 109.811 146.488 136.011C159.98 105.511 168.166 115.981 183.124 150.458V111.331C189.632 155.479 188.796 197.904 163.842 194.401C140.565 191.134 200.058 238.124 187.109 235.017C223.438 248.443 244.944 251.98 282.106 243.16C288.687 178.201 278.101 142.373 250.612 78.8254C244.953 102.335 228.473 96.6006 188.266 71L163.842 87.2528Z" fill="#C4C4C4"/>
<path d="M187.109 235.017C200.058 238.124 140.565 191.134 163.842 194.401C188.796 197.904 189.632 155.479 183.124 111.331V150.458C168.166 115.981 159.98 105.511 146.488 136.011C144.913 109.811 146.285 97.0544 163.842 87.2528L188.266 71C228.473 96.6006 244.953 102.335 250.612 78.8254C278.101 142.373 288.687 178.201 282.106 243.16C244.944 251.98 223.438 248.443 187.109 235.017ZM187.109 235.017C185.8 234.534 184.472 234.037 183.124 233.528C184.867 234.31 186.176 234.794 187.109 235.017Z" stroke="#C4C4C4"/>
</svg>
