<svg width="451" height="387" viewBox="0 0 451 387" fill="none" xmlns="http://www.w3.org/2000/svg">
<g clip-path="url(#clip0)">
<rect width="451" height="387" fill="#404040"/>
<path opacity="0.1" d="M443.607 172.329C443.527 172.878 443.446 173.427 443.356 173.976C440.469 192.674 435.755 210.7 428.746 227.251C428.516 227.8 428.282 228.349 428.044 228.898C423.546 239.333 418.022 249.14 411.581 258.126C408.09 262.974 404.283 267.578 399.756 270.901C393.412 275.559 385.994 277.451 378.704 279C371.128 280.613 363.455 281.942 355.799 283.412C353.085 283.922 350.388 284.457 347.708 285.015C340.312 286.555 332.971 288.334 325.804 290.692C316.943 293.634 308.345 297.423 300.255 302.792C299.607 303.216 298.967 303.653 298.334 304.1C297.7 304.542 297.057 304.993 296.439 305.454C295.822 305.914 295.2 306.37 294.587 306.836L293.642 307.571C293.331 307.807 293.024 308.062 292.718 308.297C291.806 309.013 290.908 309.768 290.009 310.493L289.975 310.523C289.384 311.013 288.796 311.503 288.208 311.993C284.891 314.822 281.646 317.783 278.414 320.754L276.375 322.632C275.321 323.592 274.268 324.552 273.215 325.509C272.598 326.073 271.972 326.632 271.35 327.191C270.899 327.598 270.452 328.005 269.992 328.407C267.688 330.451 265.354 332.451 262.974 334.363C262.408 334.819 261.833 335.275 261.271 335.721C256.506 339.473 251.438 342.688 246.137 345.32L246.069 345.354C243.458 346.635 240.771 347.702 238.029 348.546C236.458 349.036 234.887 349.423 233.294 349.727C229.052 350.572 224.721 350.658 220.456 349.982C212.071 348.614 204.215 344.099 195.852 342.589C178.598 339.506 161.842 349.453 145.605 357.262C141.631 359.177 137.612 360.975 133.55 362.655C130.859 363.772 128.155 364.836 125.438 365.846C108.887 372.009 91.8324 376.21 74.5397 378.382C67.4796 379.269 60.1171 379.691 52.9293 379.053C50.2149 378.824 47.5138 378.419 44.8387 377.842C35.7389 375.881 27.2437 371.719 20.4008 364.116C14.7161 357.895 10.7048 349.761 7.64743 341.275C6.41823 337.867 5.33522 334.379 4.39842 330.814C2.92593 325.225 1.81995 319.518 1.08979 313.739C0.923716 312.435 0.774679 311.126 0.663965 309.817C0.442538 307.571 0.277886 305.316 0.170011 303.051C-0.42619 291.014 0.595029 278.943 3.1976 267.264C6.09744 254.326 10.9348 241.938 13.0639 228.878C13.1533 228.329 13.2342 227.78 13.3151 227.231C13.599 225.27 13.8147 223.273 13.9624 221.24C15.0354 205.268 10.8837 189.634 7.60485 173.976C7.48988 173.427 7.37491 172.878 7.26419 172.329C6.90934 170.594 6.57294 168.856 6.255 167.118C3.21889 150.557 2.38854 132.835 5.08399 116.309C5.16915 115.76 5.26709 115.206 5.36503 114.662C7.18329 104.426 10.394 94.6898 15.3122 86.0174C20.3582 77.1147 26.984 69.7072 34.0483 63.1968C37.4975 60.0266 41.0645 57.0606 44.7492 54.2989C47.3978 52.3184 50.0947 50.444 52.8398 48.6759C75.0209 34.4589 100.327 27.5122 125.349 29.0663C126.674 29.1447 127.997 29.2493 129.317 29.3801C130.703 29.5173 132.084 29.6807 133.461 29.8703C149.569 32.0126 165.244 37.3219 180.825 43.1313C186.045 45.0922 191.253 47.0532 196.461 49.0141C198.777 49.8835 201.092 50.7414 203.406 51.5879C214.754 55.7108 226.29 59.4317 237.932 62.2359C240.631 62.8896 243.328 63.486 246.022 64.0253C255.388 65.9569 264.866 67.081 274.378 67.3883C278.068 67.4929 281.758 67.4488 285.449 67.256C287.314 67.1579 289.181 67.0141 291.048 66.8246C310.342 64.9224 328.947 58.5444 347.627 52.5537C350.327 51.686 353.031 50.8231 355.718 49.9897C359.269 48.8916 362.825 47.8278 366.393 46.8473C388.613 40.7046 408.413 44.2343 429.07 56.9021C433.754 59.7798 438.438 63.2507 441.334 68.6237C444.229 73.9968 444.932 80.6493 445.468 87.0518C446.226 96.1605 446.746 105.397 446.912 114.672C446.912 115.221 446.912 115.77 446.942 116.319C447.316 135.1 446.324 154.023 443.607 172.329Z" fill="#404040"/>
<path opacity="0.1" d="M296.235 227.251H294.783V227.981V228.898H296.427L296.235 227.251ZM279.777 227.251C279.775 227.264 279.775 227.277 279.777 227.29L279.65 228.653V228.775V228.898H292.254V228.8L293.152 227.251H279.777ZM246.074 227.251V173.976H260.551C260.398 173.829 260.241 173.682 260.079 173.545L259.866 173.358C259.776 173.275 259.687 173.197 259.593 173.123C259.5 173.05 259.278 172.863 259.112 172.736C258.946 172.608 258.844 172.525 258.686 172.422L258.588 172.349H258.567H246.074V169.432L245.737 169.618L245.379 169.848H245.354L245.277 169.902L245.056 170.069C244.979 170.123 244.903 170.177 244.83 170.236C244.609 170.407 244.404 170.594 244.17 170.785L243.957 170.981C243.812 171.108 243.676 171.241 243.531 171.373C242.965 171.907 242.407 172.466 241.828 172.981C241.683 173.113 241.539 173.241 241.402 173.363C241.093 173.624 240.772 173.867 240.44 174.089C240.302 174.187 240.16 174.277 240.014 174.359L239.776 174.486L239.559 174.594C239.047 174.842 238.517 175.036 237.974 175.172V227.251H216.258C216.258 227.309 216.287 227.363 216.3 227.422C216.419 227.912 216.539 228.403 216.654 228.893H237.979V286.001H238.311L238.69 286.03L239.38 286.089L240.495 286.217L240.998 286.285L241.551 286.364H241.632C241.952 286.413 242.275 286.471 242.603 286.53L242.812 286.57L243.28 286.658L243.953 286.795L245.567 286.697L245.788 286.751C245.878 286.751 245.967 286.79 246.061 286.815V228.898H279.62V228.775V228.653L279.748 227.29C279.745 227.277 279.745 227.264 279.748 227.251H246.074ZM296.235 227.251H294.783V227.981V228.898H296.427L296.235 227.251ZM278.87 227.251L278.726 228.898H292.748L293.702 227.251H278.87ZM246.082 227.251V173.976H260.56C260.407 173.829 260.249 173.682 260.087 173.545L259.874 173.358C259.785 173.275 259.696 173.197 259.602 173.123C259.508 173.05 259.287 172.863 259.121 172.736C258.955 172.608 258.852 172.525 258.695 172.422L258.597 172.349H258.567H246.074V169.432L245.737 169.618L245.379 169.848H245.354L245.277 169.902L245.056 170.069C244.979 170.123 244.903 170.177 244.83 170.236C244.609 170.407 244.404 170.594 244.17 170.785L243.957 170.981C243.812 171.108 243.676 171.241 243.531 171.373C242.965 171.907 242.407 172.466 241.828 172.981C241.683 173.113 241.539 173.241 241.402 173.363C241.093 173.624 240.772 173.867 240.44 174.089C240.302 174.187 240.16 174.277 240.014 174.359L239.776 174.486L239.559 174.594C239.047 174.842 238.517 175.036 237.974 175.172V227.251H216.258C216.258 227.309 216.287 227.363 216.3 227.422C216.419 227.912 216.543 228.403 216.658 228.893H237.979V285.996L238.311 286.02L238.69 286.05L239.38 286.109L240.495 286.236L240.998 286.305L241.551 286.383H241.632C241.952 286.432 242.275 286.491 242.603 286.55L242.812 286.589L243.28 286.677L243.953 286.815L245.567 286.717L245.788 286.771C245.878 286.771 245.967 286.81 246.061 286.834V228.898H278.726L278.879 227.251H246.082ZM355.799 116.309H447.023C447.023 115.76 447.023 115.211 446.993 114.662H355.799V49.9799C353.091 50.8133 350.387 51.6762 347.709 52.5439V114.662H248.492L248.241 114.348L248.62 113.858L285.522 67.2315C281.831 67.4275 278.141 67.4717 274.45 67.3638L246.074 103.2V64.0155C243.365 63.4762 240.668 62.8798 237.983 62.2261V101.396L196.495 49.0043C191.287 47.0434 186.08 45.0481 180.859 43.1215L237.251 114.348L236.999 114.662H133.495V29.8507C132.115 29.6709 130.734 29.5075 129.352 29.3605C128.032 29.2265 126.709 29.1219 125.383 29.0467V114.662H52.8742V48.6759C50.1234 50.4408 47.4265 52.3151 44.7836 54.2989V114.662H5.34832C5.25038 115.206 5.15244 115.76 5.06728 116.309H44.7496V172.329H7.26451C7.37523 172.878 7.4902 173.427 7.60517 173.976H44.7666V227.251H13.3027C13.2218 227.8 13.1408 228.349 13.0514 228.898H44.7666V377.857C47.4417 378.434 50.1428 378.838 52.8572 379.068V228.898H125.383V365.861C128.103 364.844 130.807 363.781 133.495 362.669V228.898H237.966V348.565C240.708 347.721 243.394 346.655 246.005 345.374L246.074 345.339V228.898H347.683V285.015C350.377 284.457 353.074 283.922 355.774 283.412V228.898H428.023C428.261 228.349 428.495 227.8 428.725 227.251H355.799V173.976H443.361C443.45 173.427 443.531 172.878 443.612 172.329H355.799V116.309ZM52.8785 116.309H125.383V172.329H52.8742L52.8785 116.309ZM52.8785 227.251V173.976H125.383V227.251H52.8785ZM133.499 116.309H237.966V172.329H133.495L133.499 116.309ZM133.499 227.251V173.976H237.966V227.251H133.499ZM347.687 227.251H246.074V173.976H347.683L347.687 227.251ZM347.687 172.344H246.074V117.809L247.5 116.309H347.683L347.687 172.344ZM279.782 227.251C279.779 227.264 279.779 227.277 279.782 227.29L279.654 228.653V228.775V228.898H292.258V228.8L293.157 227.251H279.782ZM296.24 227.251H294.787V227.981V228.898H296.431L296.24 227.251ZM246.078 227.251V173.976H260.556C260.402 173.829 260.245 173.682 260.083 173.545L259.87 173.358C259.781 173.275 259.691 173.197 259.598 173.123C259.504 173.05 259.283 172.863 259.116 172.736C258.95 172.608 258.848 172.525 258.691 172.422L258.593 172.349H258.571H246.074V169.432L245.737 169.618L245.379 169.848H245.354L245.277 169.902L245.056 170.069C244.979 170.123 244.903 170.177 244.83 170.236C244.609 170.407 244.404 170.594 244.17 170.785L243.957 170.981C243.812 171.108 243.676 171.241 243.531 171.373C242.965 171.907 242.407 172.466 241.828 172.981C241.683 173.113 241.539 173.241 241.402 173.363C241.093 173.624 240.772 173.867 240.44 174.089C240.302 174.187 240.16 174.277 240.014 174.359L239.776 174.486L239.559 174.594C239.047 174.842 238.517 175.036 237.974 175.172V227.251H216.258C216.258 227.309 216.287 227.363 216.3 227.422C216.419 227.912 216.539 228.403 216.654 228.893H237.979V286.001H238.311L238.69 286.03L239.38 286.089L240.495 286.217L240.998 286.285L241.551 286.364H241.632C241.952 286.413 242.275 286.471 242.603 286.53L242.812 286.57L243.28 286.658L243.953 286.795L245.567 286.697L245.788 286.751C245.878 286.751 245.967 286.79 246.061 286.815V228.898H279.62V228.775V228.653L279.748 227.29C279.745 227.277 279.745 227.264 279.748 227.251H246.078Z" fill="#404040"/>
<path opacity="0.1" d="M87.7362 77.7373H88.3835C88.162 77.5897 87.9757 77.3813 87.8412 77.1307C87.7067 76.88 87.6282 76.595 87.6127 76.3009V76.3009C87.6127 75.1635 88.822 74.237 90.2996 74.237H109.1C110.577 74.237 111.787 75.1635 111.787 76.3009C111.787 77.4333 110.577 78.3648 109.1 78.3648H108.474C108.694 78.5133 108.879 78.722 109.013 78.9726C109.147 79.2231 109.225 79.5077 109.24 79.8012C109.24 80.7817 108.363 81.5857 107.188 81.8063H112.6C114.073 81.8063 115.283 82.7328 115.283 83.8702C115.283 85.0076 114.073 85.9292 112.6 85.9292H93.7786C92.3053 85.9292 91.0959 85.0026 91.0959 83.8702C91.0959 82.8897 91.9731 82.0857 93.1484 81.8651H87.7362C86.2629 81.8651 85.0535 80.9386 85.0535 79.8012C85.0535 78.6639 86.2544 77.7373 87.7362 77.7373Z" fill="#404040"/>
<path opacity="0.1" d="M291.5 97.3812H292.13C291.909 97.2328 291.722 97.0236 291.588 96.7721C291.453 96.5206 291.375 96.2347 291.36 95.9399V95.9399C291.36 94.8074 292.569 93.8809 294.047 93.8809H312.847C314.324 93.8809 315.534 94.8074 315.534 95.9399C315.534 97.0772 314.324 98.0038 312.847 98.0038H312.221C312.441 98.1531 312.627 98.3627 312.76 98.6141C312.894 98.8654 312.972 99.1509 312.987 99.4451C312.987 100.426 312.11 101.225 310.935 101.445H316.347C317.82 101.445 319.03 102.377 319.03 103.509C319.03 104.642 317.82 105.573 316.347 105.573H297.551C296.078 105.573 294.868 104.647 294.868 103.509C294.868 102.529 295.746 101.725 296.921 101.509H291.5C290.027 101.509 288.818 100.578 288.818 99.4451C288.818 98.3126 290.035 97.3812 291.5 97.3812Z" fill="#404040"/>
<path opacity="0.1" d="M58.8953 181.443H59.5255C59.3048 181.293 59.1194 181.084 58.9857 180.832C58.852 180.581 58.7742 180.295 58.7591 180.001V180.001C58.7591 178.869 59.9641 177.937 61.4417 177.937H80.2417C81.7193 177.937 82.9287 178.869 82.9287 180.001C82.9287 181.139 81.7193 182.065 80.2417 182.065H79.6158C79.8365 182.214 80.0219 182.424 80.1556 182.675C80.2893 182.927 80.3671 183.212 80.3822 183.506C80.3822 184.487 79.5051 185.286 78.3298 185.507H83.742C85.2196 185.507 86.4247 186.433 86.4247 187.571C86.4247 188.708 85.2196 189.634 83.742 189.634H64.9377C63.4644 189.634 62.255 188.703 62.255 187.571C62.255 186.59 63.1365 185.786 64.3075 185.565H58.8953C57.422 185.565 56.2126 184.639 56.2126 183.506C56.2126 182.374 57.422 181.443 58.8953 181.443Z" fill="#404040"/>
<path d="M276.324 322.651C275.271 323.612 274.217 324.571 273.164 325.529C272.547 326.093 271.921 326.652 271.299 327.21C270.848 327.617 270.401 328.024 269.941 328.426C267.637 330.471 265.304 332.471 262.923 334.383C262.357 334.839 261.782 335.295 261.22 335.741C256.455 339.493 251.387 342.707 246.086 345.34L246.018 345.374V322.651H276.324Z" fill="#65617D"/>
<path d="M323.709 233.349L324.186 216.411C323.901 216.156 323.611 215.921 323.335 215.686C323.452 210.636 323.201 205.583 322.585 200.582C320.66 183.644 308.162 183.276 304.637 186.771C304.169 187.236 303.66 187.64 303.117 187.977C303.436 185.561 303.832 183.139 304.117 180.746C305.659 167.843 303.266 153.327 294.57 144.988C290.93 141.503 286.48 139.36 282.481 136.443C275.319 131.242 269.66 123.56 262.417 118.496C255.173 113.432 245 111.534 238.681 118.045C236.233 120.565 234.653 124.06 232.141 126.492C227.457 131.021 220.154 131.32 216.066 136.38C215.862 136.635 215.666 136.894 215.478 137.169C212.072 142.199 213.004 149.332 214.09 155.573C215.397 163.083 214.857 169.103 220.452 171.26C220.473 171.559 220.49 171.858 220.52 172.153C220.975 176.76 222.3 181.197 224.4 185.153C226.501 189.11 229.327 192.489 232.681 195.057L231.774 195.429C229.356 196.41 227.18 197.361 225.787 198.013C220.678 200.41 209.921 203.533 209.921 203.533C209.921 203.533 209.666 207.062 209.713 212.269C206.127 216.754 200.144 224.638 198.386 229.31C195.831 236.124 181.396 255.64 177.55 258.587C173.705 261.533 169.536 265.028 169.536 265.028C169.536 265.028 163.447 268.896 160.564 269.264C158.567 269.519 152.389 268.156 152.389 268.156C152.389 268.156 127.712 233.349 129.313 260.057C130.914 286.766 150.626 287.673 150.626 287.673L170.499 287.305C170.499 287.305 181.238 288.962 186.046 284.363C190.15 280.442 211.424 258.925 218.259 249.164C218.416 249.365 218.574 249.561 218.74 249.753C218.74 249.753 221.461 245.703 221.785 249.753C222.108 253.802 220.018 255.635 221.142 257.106C222.266 258.577 225.63 263.734 225.787 265.759C225.945 267.784 221.304 276.054 229.151 282.329C229.275 282.427 229.407 282.52 229.552 282.613C230.953 286.285 235.407 289.879 235.407 289.879L259.444 289.511L304.799 293.56C304.799 293.56 306.148 292.193 307.975 289.957C310.415 292.536 313.8 294.747 317.616 293.389C317.616 293.389 323.066 285.844 323.228 280.873C323.228 280.873 319.702 270.377 318.118 267.249C316.534 264.121 319.242 257.307 319.242 257.307C319.242 257.307 321.163 250.679 322.287 250.679C323.411 250.679 322.606 246.267 322.606 246.267C322.181 245.546 321.915 244.716 321.832 243.85C321.748 242.984 321.849 242.107 322.125 241.296C323.066 238.506 323.709 233.349 323.709 233.349Z" fill="url(#paint0_linear)"/>
<path d="M296.521 229.535L294.817 231.829L287.936 241.056L278.947 241.683L264.558 242.703C264.558 242.703 245.158 215.789 248.803 209.93C250.127 207.817 250.345 205.028 250.081 202.395C250.046 202.033 250 201.67 249.944 201.312C249.508 198.526 248.746 195.822 247.679 193.272L248.156 193.022L248.462 192.86L265.427 183.948L269.626 181.742C269.835 183.074 270.223 184.361 270.775 185.556C270.856 185.742 270.946 185.928 271.039 186.105C276.826 197.135 295.384 190.159 295.384 190.159L296.521 229.535Z" fill="#FCF3E7"/>
<path d="M321.606 215.764C321.478 222.441 320.533 225.324 320.533 225.324L296.521 229.535L295.622 222.358L292.066 194.017L295.405 190.174C296.739 190.505 298.121 190.479 299.444 190.098C300.768 189.718 301.998 188.992 303.04 187.977C306.536 184.497 318.94 184.864 320.848 201.704C321.408 206.362 321.661 211.062 321.606 215.764V215.764Z" fill="#FCF3E7"/>
<path d="M315.921 293.972C315.921 293.972 321.325 286.467 321.486 281.525L316.079 271.088L311.309 265.205L302.401 285.001C302.401 285.001 308.286 296.717 315.921 293.972Z" fill="#51F0D3"/>
<path opacity="0.1" d="M315.921 293.972C315.921 293.972 321.325 286.467 321.486 281.525L316.079 271.088L311.309 265.205L302.401 285.001C302.401 285.001 308.286 296.717 315.921 293.972Z" fill="black"/>
<path d="M271.299 327.21C270.848 327.617 270.401 328.024 269.941 328.426C267.637 330.47 265.304 332.471 262.923 334.383C262.357 334.839 261.782 335.294 261.22 335.741H237.966H133.495H125.383L85.194 334.084L52.8742 333.77L44.7836 333.28L4.41576 330.828C2.93689 325.236 1.82521 319.523 1.0901 313.739C0.924027 312.435 0.77499 311.126 0.664276 309.817L44.7666 312.631L52.8572 313.155L125.366 317.812L133.478 318.332L237.949 325.048L245.988 325.568H246.057L271.299 327.21Z" fill="#DAD8D8"/>
<path d="M325.777 290.692C316.916 293.634 308.319 297.423 300.228 302.792C299.585 303.218 298.951 303.654 298.308 304.1C297.665 304.547 297.03 304.993 296.413 305.454C295.795 305.914 295.174 306.37 294.56 306.836L293.615 307.571L292.691 308.297C291.78 309.018 290.881 309.768 289.983 310.493L289.949 310.523C289.357 311.013 288.769 311.503 288.182 311.993C284.865 314.822 281.62 317.783 278.388 320.754C277.706 321.381 277.024 322.007 276.34 322.632L273.189 325.509C272.571 326.073 271.945 326.632 271.323 327.191C270.872 327.598 270.425 328.005 269.965 328.407L246.119 327.098H246.051L238.011 326.666L133.494 320.965L125.382 320.519L52.8729 316.553L44.7823 316.106L1.08875 313.739C0.922681 312.435 0.773644 311.126 0.66293 309.817C0.441503 307.571 0.276851 305.316 0.168976 303.051L44.778 284.913L52.8686 281.613L60.2183 278.623L73.6104 279.427L104.563 281.255L125.394 282.515L133.506 283.005L138.689 283.319L139.928 283.398L183.54 286.02L184 286.055L203.46 287.222H203.682H203.809L205.755 287.334L212.39 287.736L220.685 288.227L223.419 288.393L223.934 288.428L227.8 288.658L228.903 288.722L232.595 288.947L234.064 289.04H234.111H234.417L237.871 289.251L243.219 289.575H243.245L244.905 289.673H245.084L246.076 289.736L248.512 289.884L250.641 290.011H250.663L253.051 290.153H253.09L254.899 290.266L256.288 290.349L261.214 290.648L262.1 290.702H262.407L262.833 290.732L264.276 290.82L264.923 290.859L269.948 291.158H270.408L277.826 291.085H277.877L306.079 290.82H306.62H307.19H308.868L317.947 290.737H319.301L325.777 290.692Z" fill="#6EABA0"/>
<path d="M135.441 291.364L138.064 307.429L209.381 306.194C209.381 306.194 214.746 307.978 214.627 303.037C214.627 303.037 225.481 291.227 280.459 304.958L259.351 285.873L201.652 289.442L134.747 287.383L135.441 291.364Z" fill="#404040"/>
<path d="M136.752 287.521L139.256 304.958C139.256 304.958 200.575 302.899 210.215 304.821L202.929 288.893C202.929 288.893 165.853 284.913 136.752 287.521Z" fill="#FCF3E7"/>
<path opacity="0.1" d="M136.752 287.521L139.256 304.958C139.256 304.958 200.575 302.899 210.215 304.821L202.929 288.893C202.929 288.893 165.853 284.913 136.752 287.521Z" fill="black"/>
<path d="M137.668 287.457L140.138 303.674C140.138 303.674 200.677 301.762 210.215 303.547L203.032 288.736C203.032 288.736 166.402 285.03 137.668 287.457Z" fill="#FCF3E7"/>
<path opacity="0.1" d="M138.779 287.957L141.185 303.125C141.185 303.125 200.396 301.336 209.743 303.007L202.716 289.148C202.716 289.148 166.888 285.667 138.779 287.957Z" fill="black"/>
<path d="M139.256 287.403L141.675 302.6C141.675 302.6 200.885 300.811 210.232 302.483L203.189 288.609C203.189 288.609 167.365 285.133 139.256 287.403Z" fill="#FCF3E7"/>
<path d="M97.364 246.159C97.364 246.159 100.464 250.821 95.9375 257.866C91.411 264.911 87.6723 270.852 89.184 275.245C89.184 275.245 95.9971 262.165 101.575 262.009C107.154 261.852 103.483 254.023 97.364 246.159Z" fill="#B2E3B7"/>
<path opacity="0.1" d="M97.364 246.159C97.6364 246.611 97.8501 247.107 97.9985 247.63C103.423 254.983 106.315 261.847 101.098 261.994C96.2398 262.151 90.4146 272.152 89.0179 274.681C89.0661 274.871 89.1215 275.062 89.184 275.255C89.184 275.255 95.9971 262.175 101.575 262.018C107.154 261.861 103.483 254.022 97.364 246.159Z" fill="#B2E3B7"/>
<path d="M103.125 252.106C103.125 253.743 102.964 255.077 102.768 255.077C102.572 255.077 102.41 253.743 102.41 252.106C102.41 250.468 102.61 251.233 102.806 251.233C103.002 251.233 103.125 250.463 103.125 252.106Z" fill="#B2E3B7"/>
<path d="M105.101 254.062C103.849 254.851 102.759 255.327 102.666 255.126C102.572 254.925 103.517 254.145 104.761 253.341C106.004 252.537 105.519 253.125 105.612 253.341C105.706 253.557 106.353 253.277 105.101 254.062Z" fill="#51F0D3"/>
<path d="M80.9997 246.159C80.9997 246.159 77.8997 250.821 82.4304 257.866C86.9612 264.911 90.6914 270.852 89.184 275.245C89.184 275.245 82.3495 262.165 76.7883 262.009C71.2271 261.852 74.8806 254.023 80.9997 246.159Z" fill="#51F0D3"/>
<path opacity="0.1" d="M80.9997 246.159C80.7295 246.613 80.5159 247.108 80.3652 247.63C74.9403 254.983 72.0489 261.847 77.2652 261.994C82.1239 262.151 87.9533 272.152 89.35 274.681C89.3046 274.871 89.2493 275.062 89.184 275.255C89.184 275.255 82.3495 262.175 76.7883 262.018C71.2271 261.861 74.8806 254.022 80.9997 246.159Z" fill="#51F0D3"/>
<path d="M75.2383 252.106C75.2383 253.743 75.4002 255.077 75.596 255.077C75.7919 255.077 75.9537 253.743 75.9537 252.106C75.9537 250.468 75.7536 251.233 75.5577 251.233C75.3618 251.233 75.2383 250.463 75.2383 252.106Z" fill="#C83434"/>
<path d="M73.2626 254.062C74.5145 254.851 75.6088 255.327 75.7025 255.126C75.7962 254.925 74.8509 254.145 73.6075 253.341C72.3641 252.537 72.8495 253.125 72.7558 253.341C72.6621 253.557 72.0106 253.277 73.2626 254.062Z" fill="#C83434"/>
<path d="M105.842 268.955L105.689 270.426L105.472 272.48L105.382 273.338L105.165 275.397L105.071 276.255L104.85 278.314L102.372 301.708C102.15 303.797 99.1865 305.424 95.6096 305.424H82.7413C79.1644 305.424 76.205 303.797 75.9835 301.708L73.501 278.314L73.2838 276.255L73.1944 275.397L72.973 273.338L72.8836 272.48L72.6664 270.426L72.5088 268.955C72.3853 267.774 73.9864 266.779 76.0133 266.779H102.355C104.377 266.779 105.983 267.774 105.842 268.955Z" fill="#65617D"/>
<path d="M105.702 270.411L105.484 272.47H72.8836L72.6664 270.411H105.702Z" fill="#E0EE42"/>
<path d="M105.395 273.328L105.178 275.387H73.1944L72.973 273.328H105.395Z" fill="#E0EE42"/>
<path d="M105.084 276.245L104.867 278.299H73.501L73.2838 276.245H105.084Z" fill="#E0EE42"/>
<path d="M145.141 267.063C145.141 267.063 136.872 257.91 137.191 269.808C137.51 281.706 145.141 267.063 145.141 267.063Z" fill="#FCF3E7"/>
<path d="M219.4 246.193C219.217 247.115 218.327 248.645 216.939 250.561C209.768 260.504 189.367 281.167 185.369 285.001C180.599 289.58 169.945 287.942 169.945 287.942L150.23 288.31C150.23 288.31 130.672 287.393 129.079 260.857C127.487 234.32 151.976 268.911 151.976 268.911C151.976 268.911 158.107 270.264 160.088 270.009C162.949 269.646 168.991 265.803 168.991 265.803C168.991 265.803 173.126 262.322 176.942 259.396C180.757 256.469 195.069 237.06 197.615 230.285C199.229 225.986 204.428 218.956 208.018 214.396C210.079 211.774 211.608 209.984 211.608 209.984C211.608 209.984 220.512 240.516 219.4 246.193Z" fill="#FCF3E7"/>
<path opacity="0.1" d="M219.4 246.193C219.217 247.115 218.327 248.645 216.939 250.561C209.7 242.075 208.188 225.142 208.018 214.377C210.079 211.754 211.608 209.965 211.608 209.965C211.608 209.965 220.512 240.516 219.4 246.193Z" fill="black"/>
<path opacity="0.1" d="M294.813 231.829L287.936 241.056L278.947 241.683L264.558 242.703C264.558 242.703 245.158 215.789 248.803 209.93C250.127 207.817 250.345 205.028 250.081 202.395C250.046 202.033 250 201.67 249.944 201.312C249.508 198.526 248.746 195.822 247.679 193.272L248.156 193.022L248.462 192.86C249.22 195.289 249.742 197.806 250.021 200.366C250.068 200.714 250.11 201.077 250.153 201.449C250.302 202.773 250.438 204.244 250.579 205.861C251.686 220.676 259.781 226.25 263.434 228.025C264.609 228.596 265.757 229.235 266.875 229.942C270.39 232.174 274.443 233.017 278.415 232.344C287.434 230.981 294.787 223.436 294.787 223.436L294.826 230.864L294.813 231.829Z" fill="black"/>
<path d="M295.09 289.398C295.09 289.398 235.939 289.212 228.142 282.991C220.345 276.77 224.966 268.529 224.804 266.514C224.642 264.499 221.308 259.376 220.196 257.905C219.085 256.435 221.15 254.611 220.831 250.586C220.512 246.561 217.812 250.586 217.812 250.586C206.677 237.585 209.061 204.636 209.061 204.636C209.061 204.636 219.707 201.528 224.817 199.14C226.2 198.493 228.355 197.571 230.778 196.576L231.677 196.204C237.923 193.63 245.35 190.723 245.35 190.723C245.35 190.723 246.776 189.561 248.211 193.037C248.867 194.635 249.527 197.209 250.055 201.322C250.102 201.67 250.144 202.033 250.187 202.405C250.336 203.729 250.472 205.2 250.613 206.817C251.72 221.632 259.815 227.206 263.468 228.981C264.643 229.552 265.791 230.191 266.909 230.898C270.424 233.13 274.477 233.973 278.449 233.3C287.468 231.937 294.822 224.392 294.822 224.392L294.86 231.82L294.971 254.135L295.09 289.398Z" fill="#51F0D3"/>
<path d="M292.543 260.474L291.59 267.431C291.59 267.431 268.054 274.201 258.835 276.216C249.616 278.231 229.735 275.667 228.304 280.059C226.873 284.452 234.346 290.496 234.346 290.496L258.192 290.129L303.193 294.158C303.193 294.158 320.367 276.765 314.801 264.68C309.236 252.596 292.543 260.474 292.543 260.474Z" fill="#FCF3E7"/>
<path opacity="0.1" d="M244.047 205.553C244.047 205.553 233.231 215.803 235.3 220.75C237.37 225.696 244.047 205.553 244.047 205.553Z" fill="black"/>
<path opacity="0.1" d="M230.689 224.039C230.689 224.039 219.715 245.826 220.354 247.473C220.993 249.12 224.012 254.979 223.85 250.586C223.688 246.193 230.689 224.039 230.689 224.039Z" fill="black"/>
<path opacity="0.1" d="M235.143 227.888C235.143 227.888 232.588 241.433 230.054 247.11C227.521 252.787 235.143 227.888 235.143 227.888Z" fill="black"/>
<path opacity="0.1" d="M271.061 186.119C268.958 190.558 265.963 194.353 262.325 197.186C258.688 200.02 254.514 201.809 250.153 202.405H250.102C243.242 203.333 236.33 201.25 230.744 196.571C237.131 193.914 245.316 190.718 245.316 190.718C245.316 190.718 246.742 189.556 248.177 193.032L269.647 181.756C269.888 183.296 270.367 184.774 271.061 186.119V186.119Z" fill="black"/>
<path d="M274.416 169.853C274.424 175.367 273.176 180.786 270.797 185.57C269.66 187.852 268.283 189.963 266.696 191.855C262.269 197.161 256.371 200.519 250.021 201.346H249.966C248.951 201.48 247.93 201.547 246.908 201.547C240.149 201.547 233.627 198.683 228.585 193.5C223.544 188.317 220.336 181.179 219.575 173.447C219.456 172.26 219.398 171.067 219.4 169.873C219.4 161.474 222.298 153.418 227.457 147.479C232.616 141.54 239.613 138.203 246.908 138.203C254.204 138.203 261.2 141.54 266.359 147.479C271.518 153.418 274.416 161.474 274.416 169.873V169.853Z" fill="#FCF3E7"/>
<path opacity="0.1" d="M292.228 229.78L294.783 225.368C294.783 225.368 308.776 206.146 322.462 218.412L321.985 235.256C321.985 235.256 321.346 240.379 320.392 243.1C320.118 243.907 320.018 244.779 320.102 245.641C320.185 246.502 320.448 247.328 320.869 248.046C320.869 248.046 321.665 252.459 320.554 252.459C319.443 252.459 317.531 259.047 317.531 259.047C317.531 259.047 314.827 265.823 316.419 268.936C318.012 272.049 321.508 282.481 321.508 282.481C321.508 282.481 315.942 278.637 314.35 272.23C314.35 272.23 300.834 260.146 290.338 267.818L292.228 229.78Z" fill="black"/>
<path opacity="0.1" d="M321.606 215.764C321.478 222.441 320.533 225.324 320.533 225.324L296.521 229.535L295.622 222.358C298.765 218.583 310.194 206.582 321.606 215.764Z" fill="black"/>
<path d="M292.228 228.8L294.783 224.388C294.783 224.388 308.776 205.165 322.462 217.431L321.985 234.276C321.985 234.276 321.346 239.399 320.392 242.12C320.118 242.927 320.018 243.799 320.102 244.66C320.185 245.522 320.448 246.347 320.869 247.066C320.869 247.066 321.665 251.478 320.554 251.478C319.443 251.478 317.531 258.067 317.531 258.067C317.531 258.067 314.827 264.842 316.419 267.955C318.012 271.068 321.508 281.5 321.508 281.5C321.508 281.5 315.942 277.657 314.35 271.25C314.35 271.25 300.834 259.165 290.338 266.837L292.228 228.8Z" fill="#51F0D3"/>
<path opacity="0.1" d="M314.805 216.352C314.805 216.352 291.751 232.648 292.863 246.939C292.863 246.939 305.744 220.745 314.805 216.352Z" fill="black"/>
<path opacity="0.1" d="M294.809 231.834L294.92 254.15C290.559 254.375 286.45 253.723 283.201 250.473C280.94 248.208 279.624 245.081 278.943 241.698C278.436 238.972 278.25 236.181 278.389 233.398C278.387 233.37 278.387 233.343 278.389 233.315C278.657 227.152 279.888 220.99 279.241 214.867C278.594 208.744 275.37 202.283 270.107 200.993C269.068 200.733 267.901 200.64 267.16 199.763C266.343 198.782 266.381 197.258 266.47 195.9L266.624 193.61C266.662 193.022 266.679 192.439 266.679 191.855C266.676 186.65 265.103 181.608 262.23 177.59C259.356 173.572 255.36 170.827 250.924 169.824L250.753 169.79C249.271 169.446 247.73 169.108 246.248 169.5C243.429 170.25 241.607 173.398 239.009 174.893C234.027 177.756 225.719 174.623 220.503 173.638C220.162 173.574 219.839 173.501 219.528 173.417C219.409 172.231 219.351 171.038 219.353 169.843C219.355 164.993 220.325 160.207 222.188 155.857C224.05 151.506 226.756 147.706 230.097 144.749C233.437 141.793 237.323 139.76 241.454 138.806C245.585 137.853 249.851 138.005 253.923 139.25C257.995 140.495 261.764 142.801 264.94 145.988C268.116 149.176 270.613 153.162 272.239 157.636C273.864 162.111 274.576 166.956 274.318 171.798C274.06 176.64 272.839 181.348 270.75 185.561C270.831 185.747 270.92 185.933 271.014 186.11C276.801 197.14 295.358 190.164 295.358 190.164L296.474 229.525L294.809 231.834Z" fill="black"/>
<path d="M240.01 174.349C242.59 172.849 244.413 169.701 247.249 168.956C248.726 168.564 250.268 168.902 251.758 169.241L251.929 169.28C256.619 170.348 260.806 173.36 263.696 177.745C266.587 182.13 267.98 187.583 267.612 193.071L267.458 195.36C267.365 196.714 267.326 198.248 268.152 199.219C268.889 200.096 270.056 200.199 271.095 200.444C276.358 201.739 279.581 208.166 280.229 214.323C280.876 220.48 279.624 226.662 279.377 232.849C279.13 239.036 280.118 245.865 284.18 249.929C290.568 256.302 300.276 252.674 308.729 252.091C304.99 252.091 302.188 247.649 301.984 243.355C301.78 239.06 303.44 234.972 305.029 231.099C306.617 227.226 308.209 223.059 307.856 218.774C307.371 212.891 303.342 208.18 301.801 202.518C300.004 195.929 301.737 188.855 302.55 182.006C304.079 169.182 301.699 154.744 293.076 146.454C289.465 142.988 285.049 140.856 281.08 137.953C273.969 132.762 268.361 125.148 261.173 120.099C253.985 115.049 243.893 113.177 237.621 119.648C235.194 122.153 233.627 125.629 231.131 128.046C226.256 132.776 218.506 132.865 214.597 138.669C211.233 143.665 212.144 150.758 213.221 156.96C214.656 165.23 213.847 171.667 221.525 173.138C226.72 174.084 235.023 177.217 240.01 174.349Z" fill="#C4C4C4"/>
<path opacity="0.1" d="M303.27 248.14C297.117 249.007 291.019 249.453 286.539 244.982C282.477 240.918 281.476 234.094 281.736 227.903C281.996 221.711 283.239 215.524 282.588 209.371C281.936 203.219 278.717 196.792 273.454 195.498C272.415 195.243 271.252 195.15 270.511 194.272C269.69 193.292 269.724 191.762 269.817 190.409L269.971 188.12C270.339 182.632 268.946 177.18 266.055 172.796C263.165 168.412 258.978 165.401 254.288 164.333L254.117 164.294C252.627 163.956 251.085 163.617 249.608 164.01C246.789 164.76 244.966 167.932 242.369 169.402C237.383 172.27 229.083 169.138 223.858 168.152C216.194 166.706 216.994 160.259 215.555 151.974C214.75 147.346 214.039 142.218 215.129 137.836C214.925 138.086 214.729 138.326 214.542 138.625C211.178 143.621 212.089 150.714 213.166 156.916C214.601 165.186 213.792 171.623 221.47 173.094C226.69 174.074 234.994 177.212 239.98 174.344C242.561 172.844 244.383 169.696 247.219 168.951C248.697 168.559 250.238 168.897 251.728 169.236L251.899 169.275C256.589 170.343 260.776 173.355 263.667 177.74C266.557 182.125 267.95 187.578 267.582 193.066L267.429 195.356C267.335 196.709 267.297 198.243 268.123 199.214C268.859 200.091 270.026 200.194 271.065 200.439C276.328 201.734 279.552 208.161 280.199 214.318C280.846 220.475 279.599 226.657 279.347 232.844C279.096 239.031 280.088 245.86 284.151 249.924C290.538 256.297 300.247 252.669 308.699 252.086C306.404 252.101 304.475 250.424 303.27 248.14Z" fill="black"/>
<path d="M130.455 264.494L156.706 253.219C157.327 252.952 158.014 252.98 158.617 253.296C159.22 253.612 159.689 254.191 159.921 254.905V254.905C160.153 255.619 160.129 256.411 159.854 257.105C159.58 257.799 159.077 258.339 158.457 258.606L132.205 269.882L126.575 269.235L130.455 264.494Z" fill="#1681BD"/>
<path opacity="0.1" d="M159.129 253.983C159.361 254.698 159.336 255.49 159.061 256.184C158.785 256.878 158.281 257.418 157.66 257.685L131.391 268.999L127.167 268.509L126.558 269.254L132.188 269.901L158.44 258.626C159.06 258.358 159.563 257.818 159.837 257.124C160.112 256.43 160.136 255.639 159.904 254.925V254.925C159.711 254.329 159.352 253.824 158.882 253.488C158.977 253.645 159.059 253.81 159.129 253.983V253.983Z" fill="#FCF3E7"/>
<path d="M130.459 264.494L132.205 269.882L127.589 269.347L126.58 269.23L127.959 267.543L130.459 264.494Z" fill="#6EABA0"/>
<path d="M127.955 267.529C128.063 267.622 128.155 267.736 128.228 267.867C128.271 267.945 128.294 268.036 128.294 268.129C128.294 268.222 128.271 268.313 128.228 268.391C128.155 268.478 128.07 268.549 127.976 268.602C127.871 268.683 127.782 268.791 127.718 268.916C127.653 269.042 127.613 269.182 127.602 269.328L126.588 269.215L127.955 267.529Z" fill="#727A9C"/>
<path d="M212.881 298.904C212.881 298.904 235.62 293.408 273.773 300.375L258.827 287.746L231.634 281.339L212.395 287.222L212.881 298.904Z" fill="#FCF3E7"/>
<path opacity="0.1" d="M212.881 298.904C212.881 298.904 235.62 293.408 273.773 300.375L258.827 287.746L231.634 281.339L212.395 287.222L212.881 298.904Z" fill="black"/>
<path d="M210.215 304.846C210.215 304.846 221.665 269.186 280.476 304.958L259.368 289.32C259.368 289.32 208.801 273.235 202.959 291.771L210.215 304.846Z" fill="#FCF3E7"/>
<path opacity="0.1" d="M210.215 304.821C210.215 304.821 221.665 266.695 280.476 305.507L259.368 288.545C259.368 288.545 208.784 269.308 202.929 289.442L210.215 304.821Z" fill="black"/>
<path d="M210.215 304.836C210.215 304.836 221.665 266.146 280.476 304.958L259.368 287.996C259.368 287.996 208.801 269.308 202.959 289.467L210.215 304.836Z" fill="#FCF3E7"/>
<path opacity="0.1" d="M210.215 304.846C210.215 304.846 221.665 261.847 280.476 305.507L259.351 286.423C259.351 286.423 208.784 266.813 202.942 289.442L210.215 304.846Z" fill="black"/>
<path d="M210.215 304.821C210.215 304.821 221.665 261.298 280.476 304.958L259.351 285.873C259.351 285.873 208.784 266.264 202.942 288.893L210.215 304.821Z" fill="#FCF3E7"/>
<path opacity="0.1" d="M386.65 300.723C386.65 300.723 372.534 318.131 385.24 326.588C385.24 326.588 386.901 328.892 389.273 327.686C389.273 327.686 388.472 326.867 390.078 325.289C390.645 324.722 391.153 324.08 391.589 323.377C392.182 322.427 392.489 321.281 392.467 320.112V320.112C392.467 320.112 394.315 313.204 388.443 304.238C388.443 304.238 387.91 301.238 387.459 300.909L386.386 305.091C386.386 305.091 389.081 305.88 390.095 308.243C390.095 308.243 386.543 305.032 386.199 305.704C386.13 305.841 385.717 307.954 385.717 307.954C385.717 307.954 390.401 309.346 391.866 313.052C391.866 313.052 388.081 308.576 385.556 308.753L385.096 311.979C385.096 311.979 390.108 313.175 391.909 317.322C391.909 317.322 387.812 312.797 385.028 312.694L384.947 315.935C384.947 315.935 389.814 317.21 391.3 320.671C391.3 320.671 386.109 315.999 384.972 316.68C384.972 316.68 385.053 319.666 385.398 320.445C385.398 320.445 388.873 321.426 389.58 323.553C389.58 323.553 385.824 320.852 385.5 321.264C385.5 321.264 386.509 325.117 387.915 326.759C387.915 326.759 385.683 324.509 384.985 321.475C384.985 321.475 384.04 323.372 384.278 325.235C384.278 325.235 382.886 323.46 384.751 320.538C384.751 320.538 384.069 317.499 384.24 317.018C384.24 317.018 382.047 319.602 381.485 321.921C381.485 321.921 381.059 319.018 384.236 316.18V312.915C384.236 312.915 381.178 316.156 380.548 318.161C380.548 318.161 380.505 315.121 384.299 312.096L384.725 308.924C384.725 308.924 381.906 311.483 380.786 313.543C380.786 313.543 381.272 310.709 384.874 308.022L385.372 305.944C385.372 305.944 383.346 307.856 382.818 308.464C382.29 309.072 382.089 308.954 382.089 308.954C382.919 307.31 384.127 305.963 385.581 305.061C385.581 305.061 386.884 300.836 386.65 300.723Z" fill="#404040"/>
<path opacity="0.1" d="M449.752 17.4623C449.752 17.4623 430.893 27.2671 439.784 40.6948C439.784 40.6948 440.546 43.5627 443.135 43.5039C443.135 43.5039 442.671 42.391 444.681 41.6459C445.395 41.3771 446.078 41.0101 446.716 40.5526C447.581 39.9391 448.249 39.0186 448.62 37.9298V37.9298C448.62 37.9298 452.639 32.3803 450.225 21.5019C450.225 21.5019 450.74 18.4967 450.434 17.9918L448.04 21.3745C448.04 21.3745 450.263 23.2962 450.408 25.9288C450.408 25.9288 448.211 21.3892 447.666 21.8598C447.555 21.9529 446.469 23.7178 446.469 23.7178C446.469 23.7178 450.302 27.0808 450.434 31.1547C450.434 31.1547 448.441 25.3405 446.048 24.3796L444.544 27.1544C444.544 27.1544 448.769 30.4831 449.05 35.111C449.05 35.111 446.784 29.1202 444.251 27.7868L443.088 30.7282C443.088 30.7282 447.155 34.0668 447.346 37.92C447.346 37.92 444.123 31.3018 442.845 31.4293C442.845 31.4293 441.921 34.2138 441.994 35.0914C441.994 35.0914 444.864 37.5425 444.813 39.8173C444.813 39.8173 442.258 35.66 441.832 35.8953C441.832 35.8953 441.47 39.8957 442.219 42.038C442.219 42.038 440.912 38.9692 441.287 35.861C441.287 35.861 439.775 37.1945 439.375 39.0182C439.375 39.0182 438.685 36.7582 441.385 34.8904C441.385 34.8904 441.772 31.7871 442.092 31.4195C442.092 31.4195 439.2 32.8264 437.914 34.6992C437.914 34.6992 438.489 31.8313 442.377 30.6253L443.484 27.625C443.484 27.625 439.579 29.2526 438.323 30.8214C438.323 30.8214 439.303 27.9976 443.816 26.8995L445.268 24.1639C445.268 24.1639 441.811 25.2768 440.086 26.6739C440.086 26.6739 441.487 24.2816 445.711 23.3991L446.865 21.7029C446.865 21.7029 444.353 22.5657 443.65 22.8893C442.948 23.2129 442.799 23.0217 442.799 23.0217C444.122 21.8687 445.698 21.1625 447.351 20.9823C447.351 20.9823 449.906 17.6584 449.752 17.4623Z" fill="#404040"/>
<path opacity="0.1" d="M270.75 23.5315C270.75 23.5315 242.416 32.846 256.191 46.71C256.191 46.71 257.413 49.6515 261.335 49.6515C261.335 49.6515 260.603 48.5141 263.634 47.8229C264.678 47.5812 265.701 47.2334 266.692 46.7835C267.86 46.3123 268.854 45.3978 269.511 44.1902C269.511 44.1902 275.472 38.6995 271.559 27.6299C271.559 27.6299 272.27 24.61 271.793 24.0904L268.25 27.4338C268.25 27.4338 271.657 29.4487 271.942 32.1107C271.942 32.1107 268.506 27.4583 267.684 27.9142C267.518 28.0074 265.913 29.7526 265.913 29.7526C265.913 29.7526 271.823 33.2726 272.091 37.3955C272.091 37.3955 268.94 31.4587 265.278 30.4145L263.064 33.1696C263.064 33.1696 269.536 36.665 270.069 41.3517C270.069 41.3517 266.5 35.2286 262.634 33.802L260.93 36.7434C260.93 36.7434 267.164 40.2438 267.573 44.1461C267.573 44.1461 262.536 37.3562 260.603 37.4396C260.603 37.4396 259.27 40.2339 259.389 41.1213C259.389 41.1213 263.792 43.7097 263.771 45.9845C263.771 45.9845 259.793 41.6998 259.138 41.9253C259.138 41.9253 258.686 45.9599 259.87 48.1464C259.87 48.1464 257.818 45.004 258.312 41.8763C258.312 41.8763 256.059 43.1754 255.493 45.004C255.493 45.004 254.394 42.7048 258.439 40.9007C258.439 40.9007 258.955 37.773 259.427 37.4102C259.427 37.4102 255.084 38.7436 253.18 40.5967C253.18 40.5967 253.981 37.7141 259.84 36.616L261.45 33.6157C261.45 33.6157 255.574 35.1453 253.708 36.6895C253.708 36.6895 255.126 33.8657 261.94 32.8853L264.069 30.1644C264.069 30.1644 258.857 31.1792 256.276 32.5421C256.276 32.5421 258.341 30.1644 264.716 29.4046L266.419 27.7279C266.419 27.7279 262.634 28.5221 261.578 28.8261C260.522 29.13 260.3 28.9339 260.3 28.9339C262.428 27.7477 264.75 27.0928 267.113 27.0122C267.113 27.0122 270.997 23.7374 270.75 23.5315Z" fill="#404040"/>
<path opacity="0.1" d="M354.343 387.005C354.343 387.005 368.608 369.753 355.974 361.155C355.974 361.155 354.33 358.831 351.95 360.007C351.95 360.007 352.746 360.836 351.128 362.4C350.556 362.96 350.043 363.595 349.599 364.292C348.998 365.235 348.681 366.378 348.696 367.547V367.547C348.696 367.547 346.784 374.435 352.584 383.465C352.584 383.465 353.091 386.471 353.538 386.809L354.649 382.637C354.649 382.637 351.958 381.818 350.966 379.445C350.966 379.445 354.488 382.691 354.837 382.024C354.909 381.887 355.339 379.784 355.339 379.784C355.339 379.784 350.655 378.313 349.233 374.617C349.233 374.617 352.98 379.137 355.51 378.985L355.995 375.764C355.995 375.764 350.996 374.514 349.22 370.371C349.22 370.371 353.278 374.94 356.063 375.077L356.17 371.832C356.17 371.832 351.311 370.479 349.838 366.998C349.838 366.998 354.99 371.734 356.131 371.062C356.131 371.062 356.076 368.082 355.705 367.297C355.705 367.297 352.239 366.248 351.549 364.14C351.549 364.14 355.284 366.886 355.607 366.474C355.607 366.474 354.632 362.611 353.24 360.954C353.24 360.954 355.454 363.228 356.127 366.268C356.127 366.268 357.089 364.38 356.864 362.517C356.864 362.517 358.243 364.312 356.353 367.209C356.353 367.209 357.008 370.258 356.834 370.734C356.834 370.734 359.048 368.175 359.627 365.885C359.627 365.885 360.053 368.793 356.83 371.592L356.787 374.857C356.787 374.857 359.87 371.651 360.517 369.65C360.517 369.65 360.517 372.695 356.715 375.675L356.289 378.842C356.289 378.842 359.129 376.313 360.266 374.269C360.266 374.269 359.755 377.092 356.131 379.74L355.616 381.813C355.616 381.813 357.66 379.926 358.205 379.323C358.75 378.72 358.937 378.833 358.937 378.833C358.095 380.468 356.874 381.802 355.412 382.686C355.412 382.686 354.13 386.887 354.343 387.005Z" fill="#404040"/>
<path opacity="0.1" d="M215.214 0.607675C215.214 0.607675 217.646 24.2568 231.459 18.5504C231.459 18.5504 234.061 18.575 234.794 15.712C234.794 15.712 233.729 15.8884 233.72 13.4569C233.711 12.5919 233.612 11.7312 233.427 10.8929C233.182 9.7587 232.621 8.74803 231.83 8.0152V8.0152C231.83 8.0152 228.44 1.92642 218.685 1.32833C218.685 1.32833 216.351 -0.14239 215.84 0.043901L217.923 3.68638C217.923 3.68638 220.184 1.82347 222.406 2.46078C222.406 2.46078 217.986 3.50989 218.212 4.24525C218.255 4.39723 219.387 6.11797 219.387 6.11797C219.387 6.11797 223.369 2.88239 226.775 3.98543C226.775 3.98543 221.363 4.41684 219.847 6.75528L221.665 9.2457C221.665 9.2457 225.694 5.60812 229.616 6.69155C229.616 6.69155 223.969 7.37789 222.1 9.75555L224.22 11.9224C224.22 11.9224 228.206 8.46131 231.459 9.39277C231.459 9.39277 225.004 10.9419 224.723 12.3783C224.723 12.3783 226.754 14.2314 227.503 14.4275C227.503 14.4275 230.416 12.0205 232.264 12.7558C232.264 12.7558 228.049 14.3148 228.112 14.8638C228.112 14.8638 231.319 16.462 233.316 16.2855C233.316 16.2855 230.382 16.7758 227.921 15.4521C227.921 15.4521 228.568 17.5062 229.96 18.5014C229.96 18.5014 227.882 18.575 227.146 15.0697C227.146 15.0697 224.693 13.7069 224.484 13.251C224.484 13.251 224.782 16.8444 225.945 18.8201C225.945 18.8201 223.739 17.3494 223.91 12.697L221.78 10.5742C221.78 10.5742 221.955 15.3541 222.875 17.2072C222.875 17.2072 220.831 15.2805 221.274 9.99086L219.447 7.57398C219.447 7.57398 219.323 11.7018 219.962 14.0157C219.962 14.0157 218.399 11.7606 218.944 6.85823L217.884 5.07866C217.884 5.07866 217.846 8.09364 217.884 8.96626C217.922 9.83889 217.739 9.92223 217.739 9.92223C217.18 8.12596 217.065 6.18594 217.407 4.31879C217.407 4.31879 215.427 0.490018 215.214 0.607675Z" fill="#404040"/>
<path opacity="0.1" d="M318.459 373.368C318.459 373.368 298.522 366.995 297.883 383.879C297.883 383.879 296.878 386.643 298.901 388.506C298.901 388.506 299.161 387.31 301.119 388.217C301.818 388.535 302.547 388.758 303.291 388.879C304.297 389.046 305.323 388.829 306.212 388.261V388.261C306.212 388.261 312.387 386.957 316.577 376.819C316.577 376.819 318.642 374.892 318.706 374.275L314.988 375.113C314.988 375.113 315.627 378.231 314.273 380.359C314.273 380.359 315.125 375.25 314.431 375.211C314.29 375.211 312.476 375.755 312.476 375.755C312.476 375.755 313.566 381.177 311.39 384.388C311.39 384.388 313.094 378.456 311.786 375.956L309.087 376.981C309.087 376.981 310.483 382.648 308.124 386.413C308.124 386.413 309.717 380.143 308.507 377.25L305.978 378.667C305.978 378.667 307.256 384.227 305.267 387.345C305.267 387.345 306.468 379.883 305.416 379.035C305.416 379.035 303.159 380.506 302.721 381.221C302.721 381.221 303.572 385.237 302.261 386.928C302.261 386.928 302.601 381.844 302.137 381.707C302.137 381.707 299.633 384.516 299.02 386.712C299.02 386.712 299.723 383.393 301.737 381.28C301.737 381.28 299.838 381.192 298.513 382.295C298.513 382.295 299.237 380.055 302.346 380.609C302.346 380.609 304.373 378.506 304.82 378.461C304.82 378.461 301.839 377.412 299.787 377.903C299.787 377.903 301.822 376.118 305.48 378.059L308.001 376.589C308.001 376.589 304.092 374.966 302.256 375.245C302.256 375.245 304.577 373.775 308.644 376.27L311.275 375.236C311.275 375.236 308.005 373.544 305.901 373.348C305.901 373.348 308.307 372.539 312.042 374.976L313.873 374.52C313.873 374.52 311.463 373.333 310.743 373.049C310.023 372.765 310.028 372.559 310.028 372.559C311.677 372.646 313.273 373.257 314.639 374.324C314.639 374.324 318.472 373.637 318.459 373.368Z" fill="#404040"/>
</g>
<defs>
<linearGradient id="paint0_linear" x1="226.711" y1="293.791" x2="226.711" y2="113.868" gradientUnits="userSpaceOnUse">
<stop stop-color="#808080" stop-opacity="0.25"/>
<stop offset="0.54" stop-color="#808080" stop-opacity="0.12"/>
<stop offset="1" stop-color="#808080" stop-opacity="0.1"/>
</linearGradient>
<clipPath id="clip0">
<rect width="451" height="387" fill="white"/>
</clipPath>
</defs>
</svg>
